# Blender 4.4.3
# www.blender.org
mtllib Untitled.mtl
o Cube
v -1.011547 -1.011547 1.011547
v -1.003975 0.980806 1.003975
v -1.011547 -1.011547 -1.011547
v -1.003975 0.980806 -1.003975
v 1.011547 -1.011547 1.011547
v 1.003975 0.980806 1.003975
v 1.011547 -1.011547 -1.011547
v 1.003975 0.980806 -1.003975
v -1.000000 -0.014142 1.985858
v 1.000000 -0.014142 1.985858
v 1.985858 -0.014142 1.000000
v 1.985858 -0.014142 -1.000000
v -1.000000 -0.014142 -1.985858
v 1.000000 -0.014142 -1.985858
v -1.985858 -0.014142 1.000000
v -1.985858 -0.014142 -1.000000
v -1.000000 -1.000000 1.000000
v -1.000000 1.000000 1.000000
v -1.000000 -1.000000 -1.000000
v -1.000000 1.000000 -1.000000
v 1.000000 -1.000000 1.000000
v 1.000000 1.000000 1.000000
v 1.000000 -1.000000 -1.000000
v 1.000000 1.000000 -1.000000
v -1.000000 0.000000 2.000000
v 1.000000 0.000000 2.000000
v 2.000000 0.000000 1.000000
v 2.000000 0.000000 -1.000000
v -1.000000 0.000000 -2.000000
v 1.000000 0.000000 -2.000000
v -2.000000 0.000000 1.000000
v -2.000000 0.000000 -1.000000
vn -1.0000 0.0038 -0.0000
vn -0.0000 0.0038 -1.0000
vn 1.0000 0.0038 -0.0000
vn -0.0000 0.0038 1.0000
vn -0.0000 -1.0000 -0.0000
vn -0.0000 -0.7024 -0.7118
vn -0.7118 -0.7024 -0.0000
vn -0.0000 -0.7024 0.7118
vn 0.7118 -0.7024 -0.0000
vn 1.0000 -0.0000 -0.0000
vn -0.0000 -0.0000 1.0000
vn -1.0000 -0.0000 -0.0000
vn -0.0000 -0.0000 -1.0000
vn -0.0000 1.0000 -0.0000
vn -0.0000 0.7071 0.7071
vn 0.7071 0.7071 -0.0000
vn -0.0000 0.7071 -0.7071
vn -0.7071 0.7071 -0.0000
vn -0.0000 -0.7071 0.7071
vn -0.9916 0.0900 0.0926
vn 0.9916 0.0900 0.0926
vn 0.7071 -0.7071 -0.0000
vn 0.0926 0.0900 0.9916
vn 0.0926 0.0900 -0.9916
vn -0.0000 -0.7071 -0.7071
vn 0.9916 0.0900 -0.0926
vn -0.9916 0.0900 -0.0926
vn -0.7071 -0.7071 -0.0000
vn -0.0926 0.0900 -0.9916
vn -0.0926 0.0900 0.9916
vt 0.375000 0.000000
vt 0.625000 0.000000
vt 0.625000 0.250000
vt 0.375000 0.250000
vt 0.625000 0.500000
vt 0.375000 0.500000
vt 0.625000 0.750000
vt 0.375000 0.750000
vt 0.625000 1.000000
vt 0.375000 1.000000
vt 0.125000 0.500000
vt 0.125000 0.750000
s 0
f 1/1/1 2/2/1 4/3/1 3/4/1
f 3/4/2 4/3/2 8/5/2 7/6/2
f 7/6/3 8/5/3 6/7/3 5/8/3
f 5/8/4 6/7/4 2/9/4 1/10/4
f 3/11/5 7/6/5 5/8/5 1/12/5
f 2/9/6 6/7/6 10/7/6 9/9/6
f 6/7/7 8/5/7 12/5/7 11/7/7
f 8/5/8 4/3/8 13/3/8 14/5/8
f 4/3/9 2/2/9 15/2/9 16/3/9
f 17/1/10 19/4/10 20/3/10 18/2/10
f 19/4/11 23/6/11 24/5/11 20/3/11
f 23/6/12 21/8/12 22/7/12 24/5/12
f 21/8/13 17/10/13 18/9/13 22/7/13
f 19/11/14 17/12/14 21/8/14 23/6/14
f 18/9/15 25/9/15 26/7/15 22/7/15
f 22/7/16 27/7/16 28/5/16 24/5/16
f 24/5/17 30/5/17 29/3/17 20/3/17
f 20/3/18 32/3/18 31/2/18 18/2/18
f 9/9/19 10/7/19 26/7/19 25/9/19
f 2/9/20 9/9/20 25/9/20 18/9/20
f 10/7/21 6/7/21 22/7/21 26/7/21
f 11/7/22 12/5/22 28/5/22 27/7/22
f 6/7/23 11/7/23 27/7/23 22/7/23
f 12/5/24 8/5/24 24/5/24 28/5/24
f 14/5/25 13/3/25 29/3/25 30/5/25
f 8/5/26 14/5/26 30/5/26 24/5/26
f 13/3/27 4/3/27 20/3/27 29/3/27
f 16/3/28 15/2/28 31/2/28 32/3/28
f 4/3/29 16/3/29 32/3/29 20/3/29
f 15/2/30 2/2/30 18/2/30 31/2/30
o HB_Cube.005
v -1.000000 1.000000 -0.920907
v -1.000000 1.000000 -1.079092
v -1.000000 -1.000000 -0.920908
v -1.000000 -1.000000 -1.079093
v 1.000000 1.000000 -0.920907
v 1.000000 1.000000 -1.079092
v 1.000000 -1.000000 -0.920908
v 1.000000 -1.000000 -1.079093
vn -1.0000 -0.0000 -0.0000
vn -0.0000 -1.0000 -0.0000
vn 1.0000 -0.0000 -0.0000
vn -0.0000 1.0000 -0.0000
vn -0.0000 -0.0000 1.0000
vn -0.0000 -0.0000 -1.0000
vt 0.375000 0.000000
vt 0.625000 0.000000
vt 0.625000 0.250000
vt 0.375000 0.250000
vt 0.625000 0.500000
vt 0.375000 0.500000
vt 0.625000 0.750000
vt 0.375000 0.750000
vt 0.625000 1.000000
vt 0.375000 1.000000
vt 0.125000 0.500000
vt 0.125000 0.750000
vt 0.875000 0.500000
vt 0.875000 0.750000
s 0
f 33/13/31 34/14/31 36/15/31 35/16/31
f 35/16/32 36/15/32 40/17/32 39/18/32
f 39/18/33 40/17/33 38/19/33 37/20/33
f 37/20/34 38/19/34 34/21/34 33/22/34
f 35/23/35 39/18/35 37/20/35 33/24/35
f 40/17/36 36/25/36 34/26/36 38/19/36
o HB_Cube.002
v -1.000000 1.000000 1.079093
v -1.000000 1.000000 0.920908
v -1.000000 -1.000000 1.079092
v -1.000000 -1.000000 0.920907
v 1.000000 1.000000 1.079093
v 1.000000 1.000000 0.920908
v 1.000000 -1.000000 1.079092
v 1.000000 -1.000000 0.920907
vn -1.0000 -0.0000 -0.0000
vn -0.0000 -1.0000 -0.0000
vn 1.0000 -0.0000 -0.0000
vn -0.0000 1.0000 -0.0000
vn -0.0000 -0.0000 1.0000
vn -0.0000 -0.0000 -1.0000
vt 0.375000 0.000000
vt 0.625000 0.000000
vt 0.625000 0.250000
vt 0.375000 0.250000
vt 0.625000 0.500000
vt 0.375000 0.500000
vt 0.625000 0.750000
vt 0.375000 0.750000
vt 0.625000 1.000000
vt 0.375000 1.000000
vt 0.125000 0.500000
vt 0.125000 0.750000
vt 0.875000 0.500000
vt 0.875000 0.750000
s 0
f 41/27/37 42/28/37 44/29/37 43/30/37
f 43/30/38 44/29/38 48/31/38 47/32/38
f 47/32/39 48/31/39 46/33/39 45/34/39
f 45/34/40 46/33/40 42/35/40 41/36/40
f 43/37/41 47/32/41 45/34/41 41/38/41
f 48/31/42 44/39/42 42/40/42 46/33/42
o HB_Cube.003
v 0.920907 1.000000 -1.000000
v 1.079092 1.000000 -1.000000
v 0.920908 -1.000000 -1.000000
v 1.079092 -1.000000 -1.000000
v 0.920908 1.000000 1.000000
v 1.079092 1.000000 1.000000
v 0.920908 -1.000000 1.000000
v 1.079093 -1.000000 1.000000
vn -0.0000 -0.0000 -1.0000
vn -0.0000 -1.0000 -0.0000
vn -0.0000 -0.0000 1.0000
vn -0.0000 1.0000 -0.0000
vn -1.0000 -0.0000 -0.0000
vn 1.0000 -0.0000 -0.0000
vt 0.375000 0.000000
vt 0.625000 0.000000
vt 0.625000 0.250000
vt 0.375000 0.250000
vt 0.625000 0.500000
vt 0.375000 0.500000
vt 0.625000 0.750000
vt 0.375000 0.750000
vt 0.625000 1.000000
vt 0.375000 1.000000
vt 0.125000 0.500000
vt 0.125000 0.750000
vt 0.875000 0.500000
vt 0.875000 0.750000
s 0
f 49/41/43 50/42/43 52/43/43 51/44/43
f 51/44/44 52/43/44 56/45/44 55/46/44
f 55/46/45 56/45/45 54/47/45 53/48/45
f 53/48/46 54/47/46 50/49/46 49/50/46
f 51/51/47 55/46/47 53/48/47 49/52/47
f 56/45/48 52/53/48 50/54/48 54/47/48
o HB_Cube.004
v -1.079093 1.000000 -1.000000
v -0.920908 1.000000 -1.000000
v -1.079092 -1.000000 -1.000000
v -0.920908 -1.000000 -1.000000
v -1.079092 1.000000 1.000000
v -0.920908 1.000000 1.000000
v -1.079092 -1.000000 1.000000
v -0.920907 -1.000000 1.000000
vn -0.0000 -0.0000 -1.0000
vn -0.0000 -1.0000 -0.0000
vn -0.0000 -0.0000 1.0000
vn -0.0000 1.0000 -0.0000
vn -1.0000 -0.0000 -0.0000
vn 1.0000 -0.0000 -0.0000
vt 0.375000 0.000000
vt 0.625000 0.000000
vt 0.625000 0.250000
vt 0.375000 0.250000
vt 0.625000 0.500000
vt 0.375000 0.500000
vt 0.625000 0.750000
vt 0.375000 0.750000
vt 0.625000 1.000000
vt 0.375000 1.000000
vt 0.125000 0.500000
vt 0.125000 0.750000
vt 0.875000 0.500000
vt 0.875000 0.750000
s 0
f 57/55/49 58/56/49 60/57/49 59/58/49
f 59/58/50 60/57/50 64/59/50 63/60/50
f 63/60/51 64/59/51 62/61/51 61/62/51
f 61/62/52 62/61/52 58/63/52 57/64/52
f 59/65/53 63/60/53 61/62/53 57/66/53
f 64/59/54 60/67/54 58/68/54 62/61/54
o HB_Cube.001
v -1.000000 -1.079092 -1.000000
v -1.000000 -0.920907 -1.000000
v 1.000000 -1.079093 -1.000000
v 1.000000 -0.920908 -1.000000
v -1.000000 -1.079092 1.000000
v -1.000000 -0.920907 1.000000
v 1.000000 -1.079093 1.000000
v 1.000000 -0.920908 1.000000
vn -0.0000 -0.0000 -1.0000
vn 1.0000 -0.0000 -0.0000
vn -0.0000 -0.0000 1.0000
vn -1.0000 -0.0000 -0.0000
vn -0.0000 -1.0000 -0.0000
vn -0.0000 1.0000 -0.0000
vt 0.375000 0.000000
vt 0.625000 0.000000
vt 0.625000 0.250000
vt 0.375000 0.250000
vt 0.625000 0.500000
vt 0.375000 0.500000
vt 0.625000 0.750000
vt 0.375000 0.750000
vt 0.625000 1.000000
vt 0.375000 1.000000
vt 0.125000 0.500000
vt 0.125000 0.750000
vt 0.875000 0.500000
vt 0.875000 0.750000
s 0
f 65/69/55 66/70/55 68/71/55 67/72/55
f 67/72/56 68/71/56 72/73/56 71/74/56
f 71/74/57 72/73/57 70/75/57 69/76/57
f 69/76/58 70/75/58 66/77/58 65/78/58
f 67/79/59 71/74/59 69/76/59 65/80/59
f 72/73/60 68/81/60 66/82/60 70/75/60
o HB_Cube.006
v -0.997304 -0.003815 1.975163
v -0.997160 0.029049 2.008037
v -1.002814 0.969655 1.001990
v -1.002670 1.002519 1.034864
v 1.002670 -0.002519 1.965136
v 1.002814 0.030345 1.998010
v 0.997160 0.970951 0.991963
v 0.997304 1.003815 1.024837
vn -1.0000 -0.0006 0.0050
vn -0.0040 0.7072 -0.7070
vn 1.0000 0.0006 -0.0050
vn 0.0040 -0.7072 0.7070
vn -0.0031 -0.7070 -0.7072
vn 0.0031 0.7070 0.7072
vt 0.375000 0.000000
vt 0.625000 0.000000
vt 0.625000 0.250000
vt 0.375000 0.250000
vt 0.625000 0.500000
vt 0.375000 0.500000
vt 0.625000 0.750000
vt 0.375000 0.750000
vt 0.625000 1.000000
vt 0.375000 1.000000
vt 0.125000 0.500000
vt 0.125000 0.750000
vt 0.875000 0.500000
vt 0.875000 0.750000
s 0
f 73/83/61 74/84/61 76/85/61 75/86/61
f 75/86/62 76/85/62 80/87/62 79/88/62
f 79/88/63 80/87/63 78/89/63 77/90/63
f 77/90/64 78/89/64 74/91/64 73/92/64
f 75/93/65 79/88/65 77/90/65 73/94/65
f 80/87/66 76/95/66 74/96/66 78/89/66
o HB_Cube.007
v -0.997304 0.975163 -0.996185
v -0.997160 1.008037 -1.029049
v -1.002814 0.001990 -1.969655
v -1.002670 0.034864 -2.002519
v 1.002670 0.965136 -0.997481
v 1.002814 0.998010 -1.030345
v 0.997160 -0.008037 -1.970951
v 0.997304 0.024837 -2.003815
vn -1.0000 0.0050 0.0006
vn -0.0040 -0.7070 -0.7072
vn 1.0000 -0.0050 -0.0006
vn 0.0040 0.7070 0.7072
vn -0.0031 -0.7072 0.7070
vn 0.0031 0.7072 -0.7070
vt 0.375000 0.000000
vt 0.625000 0.000000
vt 0.625000 0.250000
vt 0.375000 0.250000
vt 0.625000 0.500000
vt 0.375000 0.500000
vt 0.625000 0.750000
vt 0.375000 0.750000
vt 0.625000 1.000000
vt 0.375000 1.000000
vt 0.125000 0.500000
vt 0.125000 0.750000
vt 0.875000 0.500000
vt 0.875000 0.750000
s 0
f 81/97/67 82/98/67 84/99/67 83/100/67
f 83/100/68 84/99/68 88/101/68 87/102/68
f 87/102/69 88/101/69 86/103/69 85/104/69
f 85/104/70 86/103/70 82/105/70 81/106/70
f 83/107/71 87/102/71 85/104/71 81/108/71
f 88/101/72 84/109/72 82/110/72 86/103/72
o HB_Cube.008
v 0.996185 0.975163 -0.997304
v 1.029049 1.008037 -0.997160
v 1.969654 0.001990 -1.002814
v 2.002519 0.034864 -1.002670
v 0.997481 0.965136 1.002670
v 1.030346 0.998010 1.002814
v 1.970951 -0.008037 0.997160
v 2.003815 0.024837 0.997304
vn -0.0006 0.0050 -1.0000
vn 0.7072 -0.7070 -0.0040
vn 0.0006 -0.0050 1.0000
vn -0.7072 0.7070 0.0040
vn -0.7070 -0.7072 -0.0031
vn 0.7070 0.7072 0.0031
vt 0.375000 0.000000
vt 0.625000 0.000000
vt 0.625000 0.250000
vt 0.375000 0.250000
vt 0.625000 0.500000
vt 0.375000 0.500000
vt 0.625000 0.750000
vt 0.375000 0.750000
vt 0.625000 1.000000
vt 0.375000 1.000000
vt 0.125000 0.500000
vt 0.125000 0.750000
vt 0.875000 0.500000
vt 0.875000 0.750000
s 0
f 89/111/73 90/112/73 92/113/73 91/114/73
f 91/114/74 92/113/74 96/115/74 95/116/74
f 95/116/75 96/115/75 94/117/75 93/118/75
f 93/118/76 94/117/76 90/119/76 89/120/76
f 91/121/77 95/116/77 93/118/77 89/122/77
f 96/115/78 92/123/78 90/124/78 94/117/78
o HB_Cube.009
v -1.024837 1.003815 -0.997304
v -0.991963 0.970951 -0.997160
v -1.998010 0.030345 -1.002814
v -1.965136 -0.002519 -1.002670
v -1.034864 1.002519 1.002670
v -1.001990 0.969655 1.002814
v -2.008037 0.029049 0.997160
v -1.975163 -0.003815 0.997304
vn 0.0050 0.0006 -1.0000
vn -0.7070 -0.7072 -0.0040
vn -0.0050 -0.0006 1.0000
vn 0.7070 0.7072 0.0040
vn -0.7072 0.7070 -0.0031
vn 0.7072 -0.7070 0.0031
vt 0.375000 0.000000
vt 0.625000 0.000000
vt 0.625000 0.250000
vt 0.375000 0.250000
vt 0.625000 0.500000
vt 0.375000 0.500000
vt 0.625000 0.750000
vt 0.375000 0.750000
vt 0.625000 1.000000
vt 0.375000 1.000000
vt 0.125000 0.500000
vt 0.125000 0.750000
vt 0.875000 0.500000
vt 0.875000 0.750000
s 0
f 97/125/79 98/126/79 100/127/79 99/128/79
f 99/128/80 100/127/80 104/129/80 103/130/80
f 103/130/81 104/129/81 102/131/81 101/132/81
f 101/132/82 102/131/82 98/133/82 97/134/82
f 99/135/83 103/130/83 101/132/83 97/136/83
f 104/129/84 100/137/84 98/138/84 102/131/84
